<svg id="Layer_1" data-name="Layer 1" xmlns="http://www.w3.org/2000/svg" xmlns:xlink="http://www.w3.org/1999/xlink" viewBox="0 0 161.37 198.89"><defs><style>.cls-1{fill:url(#linear-gradient);}.cls-2{fill:#fff;}</style><linearGradient id="linear-gradient" y1="100.55" x2="161.39" y2="100.55" gradientTransform="matrix(1, 0, 0, -1, 0, 200)" gradientUnits="userSpaceOnUse"><stop offset="0" stop-color="#e78200"/><stop offset="1" stop-color="#decb00"/></linearGradient></defs><g id="Layer_2" data-name="Layer 2"><g id="Layer_1-2" data-name="Layer 1-2"><path class="cls-1" d="M149.68,49.56C134.23,17.6,109.5.4,73.71.09c-22.33-.19-44.66,0-67,0C.14.09.11.13.11,6.81Q.08,53,.1,99.29c0,31,.1,62-.1,93,0,5,1.34,6.58,6.45,6.53,25.16-.24,50.34-.61,75.48.06,18.14.49,32.75-7,45.59-18.26,20.87-18.31,29.42-43,33-69.61C163.35,89.54,159.15,69.14,149.68,49.56Z"/></g></g><g id="Layer_2-2" data-name="Layer 2"><g id="Layer_1-2-2" data-name="Layer 1-2"><path class="cls-2" d="M124.3,88.23h-9.5a33.79,33.79,0,0,0-4.5,0c-5.24.8-8.41-1.24-11.23-5.88a26.56,26.56,0,0,0-8.79-8.91A20.65,20.65,0,0,0,78.43,69.6c-13.38,0-24.22,13.44-24.22,30v.93A28.05,28.05,0,0,0,56.41,113a28.74,28.74,0,0,0,5.83,9,21.82,21.82,0,0,0,16.19,7.69,20.9,20.9,0,0,0,13-4.71,25.67,25.67,0,0,0,7.86-8.27c2.38-3.88,4.84-5.86,9.49-5.55,5,.34,10,.12,15,0,2.62-.09,3.54,1,3.63,3.51a21.39,21.39,0,0,1-2,9.18C118.88,139.34,110,152.72,92.88,158c-13.09,4.08-25.65,2-37.41-4.82-13.16-7.64-20.76-19.5-24.09-34-5.27-23-.9-44.47,13-63.36C57.11,38.62,79.7,31.2,100.54,43.61c13.56,8.07,21.6,19.87,26.28,34.41.7,2.16.46,4.62.72,6.93C127.81,87.43,126.5,88.24,124.3,88.23Z"/></g></g></svg>