<svg class="thumb" width="1000" height="180" viewBox="29.999481201171875 259.2814025878906 539.9959716796875 81.43637084960938" xmlns="http://www.w3.org/2000/svg" xmlns:inkscape="http://www.inkscape.org/namespaces/inkscape" xmlns:sodipodi="http://sodipodi.sourceforge.net/DTD/sodipodi-0.dtd" xmlns:xlink="http://www.w3.org/1999/xlink" xmlns:ns1="http://www.inkscape.org/namespaces/inkscape" xmlns:sketch="http://www.bohemiancoding.com/sketch/ns">
  <defs></defs>
  <g transform="matrix(0.7134,0,0,0.7134,-35.2819,245.4879)">
    <g transform="matrix(0.1625,0,0,1.658,92.272,51.9074)">
      <svg width="186.742" height="17.218999999999994" viewBox="-5,79.525,186.742,17.218999999999994" class="thumb">
        <defs>
          <linearGradient x1="0" y1="0.5" x2="1" y2="0.5" id="linearGradientSkcq7ekn94">
            <stop offset="0%" stop-color="#e78200"></stop>
            <stop offset="100%" stop-color="#decb00"></stop>
          </linearGradient>
        </defs>
        <g></g>
        <g></g>
        <g>
          <rect y="84.525" width="176.742" height="7.219" fill="url('#linearGradientSkcq7ekn94')" stroke="none" style=""></rect>
        </g>
      </svg>
    </g>
    <g transform="matrix(0.1625,0,0,5.8516,92.272,49.2616)">
      <svg width="186.742" height="17.218999999999994" viewBox="-5,79.525,186.742,17.218999999999994" class="thumb">
        <defs>
          <linearGradient x1="0" y1="0.5" x2="1" y2="0.5" id="linearGradientSkcq7ekn9a">
            <stop offset="0%" stop-color="#e78200"></stop>
            <stop offset="100%" stop-color="#decb00"></stop>
          </linearGradient>
        </defs>
        <g></g>
        <g></g>
        <g>
          <rect y="84.525" width="176.742" height="7.219" fill="url('#linearGradientSkcq7ekn9a')" stroke="none" style=""></rect>
        </g>
      </svg>
    </g>
    <g transform="matrix(0.1625,0,0,1.0471,92.272,42.0994)">
      <svg width="186.742" height="17.218999999999994" viewBox="-5,79.525,186.742,17.218999999999994" class="thumb">
        <defs>
          <linearGradient x1="0" y1="0.5" x2="1" y2="0.5" id="linearGradientSkcq7ekn9g">
            <stop offset="0%" stop-color="#e78200"></stop>
            <stop offset="100%" stop-color="#decb00"></stop>
          </linearGradient>
        </defs>
        <g></g>
        <g></g>
        <g>
          <rect y="84.525" width="176.742" height="7.219" fill="url('#linearGradientSkcq7ekn9g')" stroke="none" style=""></rect>
        </g>
      </svg>
    </g>
    <g transform="matrix(0.1625,0,0,1.658,127.272,23.9074)">
      <svg width="186.742" height="17.218999999999994" viewBox="-5,79.525,186.742,17.218999999999994" class="thumb">
        <defs>
          <linearGradient x1="0" y1="0.5" x2="1" y2="0.5" id="linearGradientSkcq7ekn9m">
            <stop offset="0%" stop-color="#e78200"></stop>
            <stop offset="100%" stop-color="#decb00"></stop>
          </linearGradient>
        </defs>
        <g></g>
        <g></g>
        <g>
          <rect y="84.525" width="176.742" height="7.219" fill="url('#linearGradientSkcq7ekn9m')" stroke="none" style=""></rect>
        </g>
      </svg>
    </g>
    <g transform="matrix(0.1625,0,0,9.8973,127.272,0.8729)">
      <svg width="186.742" height="17.218999999999994" viewBox="-5,79.525,186.742,17.218999999999994" class="thumb">
        <defs>
          <linearGradient x1="0" y1="0.5" x2="1" y2="0.5" id="linearGradientSkcq7ekn9s">
            <stop offset="0%" stop-color="#e78200"></stop>
            <stop offset="100%" stop-color="#decb00"></stop>
          </linearGradient>
        </defs>
        <g></g>
        <g></g>
        <g>
          <rect y="84.525" width="176.742" height="7.219" fill="url('#linearGradientSkcq7ekn9s')" stroke="none" style=""></rect>
        </g>
      </svg>
    </g>
    <g transform="matrix(0.1625,0,0,1.0471,127.272,14.0994)">
      <svg width="186.742" height="17.218999999999994" viewBox="-5,79.525,186.742,17.218999999999994" class="thumb">
        <defs>
          <linearGradient x1="0" y1="0.5" x2="1" y2="0.5" id="linearGradientSkcq7ekn9y">
            <stop offset="0%" stop-color="#e78200"></stop>
            <stop offset="100%" stop-color="#decb00"></stop>
          </linearGradient>
        </defs>
        <g></g>
        <g></g>
        <g>
          <rect y="84.525" width="176.742" height="7.219" fill="url('#linearGradientSkcq7ekn9y')" stroke="none" style=""></rect>
        </g>
      </svg>
    </g>
    <g transform="matrix(0.1514,0,0,1.658,165.3047,51.9074)">
      <svg width="186.742" height="17.218999999999994" viewBox="-5,79.525,186.742,17.218999999999994" class="thumb">
        <defs>
          <linearGradient x1="0" y1="0.5" x2="1" y2="0.5" id="linearGradientSkcq7ekn914">
            <stop offset="0%" stop-color="#e78200"></stop>
            <stop offset="100%" stop-color="#decb00"></stop>
          </linearGradient>
        </defs>
        <g></g>
        <g></g>
        <g>
          <rect y="84.525" width="176.742" height="7.219" fill="url('#linearGradientSkcq7ekn914')" stroke="none" style=""></rect>
        </g>
      </svg>
    </g>
    <g transform="matrix(0.1514,0,0,5.8516,165.3047,49.2616)">
      <svg width="186.742" height="17.218999999999994" viewBox="-5,79.525,186.742,17.218999999999994" class="thumb">
        <defs>
          <linearGradient x1="0" y1="0.5" x2="1" y2="0.5" id="linearGradientSkcq7ekn91a">
            <stop offset="0%" stop-color="#e78200"></stop>
            <stop offset="100%" stop-color="#decb00"></stop>
          </linearGradient>
        </defs>
        <g></g>
        <g></g>
        <g>
          <rect y="84.525" width="176.742" height="7.219" fill="url('#linearGradientSkcq7ekn91a')" stroke="none" style=""></rect>
        </g>
      </svg>
    </g>
    <g transform="matrix(0.1514,0,0,1.0471,165.3047,42.0994)">
      <svg width="186.742" height="17.218999999999994" viewBox="-5,79.525,186.742,17.218999999999994" class="thumb">
        <defs>
          <linearGradient x1="0" y1="0.5" x2="1" y2="0.5" id="linearGradientSkcq7ekn91g">
            <stop offset="0%" stop-color="#e78200"></stop>
            <stop offset="100%" stop-color="#decb00"></stop>
          </linearGradient>
        </defs>
        <g></g>
        <g></g>
        <g>
          <rect y="84.525" width="176.742" height="7.219" fill="url('#linearGradientSkcq7ekn91g')" stroke="none" style=""></rect>
        </g>
      </svg>
    </g>
    <g transform="matrix(4.2827,0,0,0.6688,70.0939,125.3153)">
      <svg width="186.742" height="17.218999999999994" viewBox="-5,79.525,186.742,17.218999999999994" class="thumb">
        <defs>
          <linearGradient x1="0" y1="0.5" x2="1" y2="0.5" id="linearGradientSkcq7ekn91m">
            <stop offset="0%" stop-color="#decb00"></stop>
            <stop offset="100%" stop-color="#e78200"></stop>
          </linearGradient>
        </defs>
        <g></g>
        <g></g>
        <g>
          <rect y="84.525" width="176.742" height="7.219" fill="url('#linearGradientSkcq7ekn91m')" stroke="none" style=""></rect>
        </g>
      </svg>
    </g>
    <g transform="matrix(0.7709,0,0,0.7709,217.2418,27.3899)">
      <svg width="549.1" height="194" style="overflow: visible;">
        <defs>
          <linearGradient x1="0.85" y1="0.15" x2="0.15" y2="0.85" id="linearGradientSkcq7ekn91u">
            <stop offset="0%" stop-color="#000000"></stop>
            <stop offset="100%" stop-color="#000000"></stop>
          </linearGradient>
        </defs>
        <g transform="matrix(1,0,0,1,0,100.5)">
          <path d="M 39.9-70Q 55.9-70  65.85-60.35Q 75.8-50.7  75.8-35Q 75.8-19.3  65.85-9.65Q 55.9 0  39.9 0L 39.9 0L 6 0L 6-1L 7.3-1Q 9.9-1  11.75-2.85Q 13.6-4.7  13.7-7.3L 13.7-7.3L 13.7-63.3Q 13.7-65.7  11.75-67.35Q 9.8-69  7.3-69L 7.3-69L 6.1-69L 6-70L 39.9-70ZM 39.9-67L 20.2-67L 20.2-3L 39.9-3Q 48.3-3  54.75-7Q 61.2-11  64.75-18.25Q 68.3-25.5  68.3-35L 68.3-35Q 68.3-49.4  60.45-58.2Q 52.6-67  39.9-67L 39.9-67ZM 84.2-1L 85.60000000000001-1Q 88-1  89.65-2.55Q 91.3-4.1  91.4-6.3L 91.4-6.3L 91.4-53.8Q 91.4-56  89.7-57.5Q 88-59  85.60000000000001-59L 85.60000000000001-59L 84.2-59L 84.2-60L 113.4-60Q 117.5-60  120.6-60.6Q 123.7-61.2  124.6-61.6L 124.6-61.6L 124.6-50.2L 123.5-50.3L 123.5-51.8Q 123.5-53.9  122.1-55.4Q 120.7-56.9  118.5-56.9L 118.5-56.9L 97.7-56.9L 97.7-31.5L 114.80000000000001-31.5Q 116.80000000000001-31.5  117.85-32.7Q 118.9-33.9  118.9-35.7L 118.9-35.7L 118.9-37L 120-37L 120-23L 118.9-23L 118.9-24.3Q 118.9-27.1  116.80000000000001-28.1L 116.80000000000001-28.1Q 116-28.4  115.1-28.5L 115.1-28.5L 97.7-28.5L 97.7-3.1L 113.4-3.1Q 118-3.1  121.15-4.7Q 124.30000000000001-6.3  125.95-8.5Q 127.6-10.7  129.3-14.3L 129.3-14.3L 130.3-14.3L 124.80000000000001 0L 84.2 0L 84.2-1ZM 177.5-50.3L 177.5-51.8Q 177.5-55.2  174.59999999999997-56.5L 174.59999999999997-56.5Q 173.59999999999997-56.9  172.5-56.9L 172.5-56.9L 151.39999999999998-56.9L 151.39999999999998-31.5L 168.79999999999998-31.5Q 170.79999999999998-31.5  171.79999999999998-32.7Q 172.79999999999998-33.9  172.79999999999998-35.7L 172.79999999999998-35.7L 172.79999999999998-37L 174-37L 174-23L 172.79999999999998-23L 172.79999999999998-24.3Q 172.79999999999998-26.7  171.2-27.8L 171.2-27.8Q 170.29999999999998-28.4  169-28.5L 169-28.5L 151.39999999999998-28.5L 151.39999999999998-6.4Q 151.49999999999997-3.7  153.79999999999998-2L 153.79999999999998-2Q 155.29999999999998-1  157.29999999999998-1L 157.29999999999998-1L 158.7-1L 158.7 0L 137.79999999999998 0L 137.79999999999998-1L 139.2-1Q 141.6-1  143.29999999999998-2.55Q 144.99999999999997-4.1  145.1-6.3L 145.1-6.3L 145.1-53.8Q 144.99999999999997-56.9  142.2-58.3L 142.2-58.3Q 140.79999999999998-59  139.2-59L 139.2-59L 137.79999999999998-59L 137.79999999999998-60L 151.39999999999998-60L 167.29999999999998-60Q 170.2-60  173.7-60.5Q 177.2-61  178.59999999999997-61.6L 178.59999999999997-61.6L 178.59999999999997-50.2L 177.5-50.3ZM 190.09999999999997-1L 191.49999999999997-1Q 194.19999999999996-1  196.19999999999996-2.6Q 198.19999999999996-4.2  198.19999999999996-6.4L 198.19999999999996-6.4L 198.19999999999996-53.6Q 198.19999999999996-55.8  196.19999999999996-57.4Q 194.19999999999996-59  191.39999999999998-59L 191.39999999999998-59L 190.09999999999997-59L 190.09999999999997-60L 212.69999999999996-60L 212.69999999999996-59L 211.39999999999998-59Q 208.69999999999996-59  206.74999999999997-57.5Q 204.79999999999995-56  204.59999999999997-53.8L 204.59999999999997-53.8L 204.59999999999997-6.3Q 204.69999999999996-4.1  206.69999999999996-2.55Q 208.69999999999996-1  211.39999999999998-1L 211.39999999999998-1L 212.69999999999996-1L 212.79999999999995 0L 190.09999999999997 0L 190.09999999999997-1ZM 284.9 1.4Q 269.09999999999997 1.3  259.15-8.7Q 249.2-18.7  249.2-35.05Q 249.2-51.4  259.15-61.4Q 269.09999999999997-71.4  285.5-71.4L 285.5-71.4Q 298.9-71.4  309.2-64.6L 309.2-64.6L 311.2-50.5L 310.29999999999995-50.5Q 308.1-59.1  301.4-63.75Q 294.7-68.4  285.5-68.4L 285.5-68.4Q 272.4-68.4  264.55-59.3Q 256.7-50.2  256.7-35.2Q 256.7-20.2  264.45-11.05Q 272.2-1.9  284.9-1.6L 284.9-1.6Q 296.09999999999997-1.6  303.59999999999997-7.7L 303.59999999999997-7.7Q 311.7-14.3  313.4-29.2L 313.4-29.2L 314.2-29.2L 313-13.5Q 303.9 1.4  284.9 1.4L 284.9 1.4ZM 324.7-1L 326.09999999999997-1Q 328.5-1  330.15-2.55Q 331.8-4.1  331.9-6.3L 331.9-6.3L 331.9-53.6Q 331.8-55.8  330.05-57.4Q 328.3-59  325.9-59L 325.9-59L 324.7-59L 324.7-60L 345.4-60L 345.4-59L 344.2-59Q 341.8-59  340.05-57.4Q 338.3-55.8  338.3-53.6L 338.3-53.6L 338.3-3.1L 353.9-3.1Q 358.5-3.1  361.7-4.7Q 364.9-6.3  366.55-8.5Q 368.2-10.7  369.8-14.3L 369.8-14.3L 370.8-14.3L 365.3 0L 324.7 0L 324.7-1ZM 375.9-1L 377.29999999999995-1Q 379.7-1  381.34999999999997-2.55Q 383-4.1  383.09999999999997-6.3L 383.09999999999997-6.3L 383.09999999999997-53.8Q 383.09999999999997-56  381.4-57.5Q 379.7-59  377.29999999999995-59L 377.29999999999995-59L 375.9-59L 375.9-60L 405.09999999999997-60Q 409.2-60  412.29999999999995-60.6Q 415.4-61.2  416.29999999999995-61.6L 416.29999999999995-61.6L 416.29999999999995-50.2L 415.2-50.3L 415.2-51.8Q 415.2-53.9  413.79999999999995-55.4Q 412.4-56.9  410.2-56.9L 410.2-56.9L 389.4-56.9L 389.4-31.5L 406.5-31.5Q 408.5-31.5  409.54999999999995-32.7Q 410.59999999999997-33.9  410.59999999999997-35.7L 410.59999999999997-35.7L 410.59999999999997-37L 411.7-37L 411.7-23L 410.59999999999997-23L 410.59999999999997-24.3Q 410.59999999999997-27.1  408.5-28.1L 408.5-28.1Q 407.7-28.4  406.79999999999995-28.5L 406.79999999999995-28.5L 389.4-28.5L 389.4-3.1L 405.09999999999997-3.1Q 409.7-3.1  412.84999999999997-4.7Q 416-6.3  417.65-8.5Q 419.29999999999995-10.7  421-14.3L 421-14.3L 422-14.3L 416.5 0L 375.9 0L 375.9-1ZM 448.19999999999993-56.9L 448.19999999999993-56.9L 442.8999999999999-56.9L 442.8999999999999-6.4Q 442.99999999999994-3.3  445.69999999999993-1.7L 445.69999999999993-1.7Q 446.99999999999994-1  448.59999999999997-1L 448.59999999999997-1L 449.8999999999999-1L 449.99999999999994 0L 429.49999999999994 0L 429.49999999999994-1L 430.8999999999999-1Q 433.19999999999993-1  434.84999999999997-2.55Q 436.49999999999994-4.1  436.49999999999994-6.3L 436.49999999999994-6.3L 436.49999999999994-53.8Q 436.49999999999994-56  434.84999999999997-57.5Q 433.19999999999993-59  430.8999999999999-59L 430.8999999999999-59L 429.49999999999994-59L 429.49999999999994-60L 454.59999999999997-60Q 463.99999999999994-60  469.44999999999993-55.7Q 474.8999999999999-51.4  474.8999999999999-44.4Q 474.8999999999999-37.4  470.49999999999994-32.7Q 466.09999999999997-28  459.29999999999995-27.3L 459.29999999999995-27.3Q 462.49999999999994-25.9  466.99999999999994-19.5L 466.99999999999994-19.5Q 466.8999999999999-19.5  470.44999999999993-15.1Q 473.99999999999994-10.7  476.1499999999999-8.25Q 478.29999999999995-5.8  479.69999999999993-4.5L 479.69999999999993-4.5Q 483.3999999999999-1  488.19999999999993-1L 488.19999999999993-1L 488.19999999999993 0L 485.09999999999997 0Q 477.19999999999993 0  472.69999999999993-3.1L 472.69999999999993-3.1Q 469.29999999999995-5.4  466.49999999999994-8.8L 466.49999999999994-8.8Q 465.8999999999999-9.6  461.44999999999993-15.85Q 456.99999999999994-22.1  456.69999999999993-22.5L 456.69999999999993-22.5Q 451.29999999999995-29.2  446.59999999999997-29.2L 446.59999999999997-29.2L 446.59999999999997-30.2Q 458.29999999999995-30.2  460.69999999999993-31.4L 460.69999999999993-31.4Q 463.99999999999994-33.1  465.19999999999993-35L 465.19999999999993-35Q 467.69999999999993-39  467.69999999999993-43.8L 467.69999999999993-43.8Q 467.69999999999993-49.9  464.09999999999997-53.2Q 460.49999999999994-56.5  454.3999999999999-56.8L 454.3999999999999-56.8Q 451.69999999999993-56.9  448.19999999999993-56.9ZM 549.6-1L 549.6 0L 545.9 0Q 536.1 0  531.2-5.7L 531.2-5.7L 509.2-29.8L 530.7-55.1Q 531.8-56.5  531.05-57.75Q 530.3-59  528.5-59L 528.5-59L 527.6-59L 527.6-60L 548-60L 548-59L 547.6-59Q 541.5-59  537.9-55.4L 537.9-55.4L 516.1-32.1L 540.9-5.1Q 542.7-2.9  544.6-2Q 546.5-1.1  549.6-1L 549.6-1ZM 511.59999999999997-1L 511.59999999999997-1L 512.7-1L 512.7 0L 492.2 0L 492.2-1L 493.4-1Q 495.8-1  497.5-2.6Q 499.2-4.2  499.3-6.4L 499.3-6.4L 499.3-53.6Q 499.2-55.8  497.5-57.4Q 495.8-59  493.4-59L 493.4-59L 492.2-59L 492.2-60L 512.7-60L 512.7-59L 511.5-59Q 508.3-59  506.5-56.4L 506.5-56.4Q 505.7-55.2  505.7-53.7L 505.7-53.7L 505.7-6.3Q 505.7-4.1  507.45-2.55Q 509.2-1  511.59999999999997-1Z" data-textpath="Defi Clerk" data-text-anchor="middle" data-font-size="100" data-letterspacing="0" data-side="left" data-offset="0.5" data-dx="0" data-dy="0" data-xmlspace="preserve" data-href="" data-font="Cinzel" data-font-src="/Content/clientfonts/cinzel.woff" data-font-scale="contain" transform="translate(0,0)" data-x="0" data-y="0" fill="url('#linearGradientSkcq7ekn91u')"></path>
        </g>
      </svg>
    </g>
  </g>
</svg>