<svg id="Layer_1" data-name="Layer 1" xmlns="http://www.w3.org/2000/svg" xmlns:xlink="http://www.w3.org/1999/xlink" viewBox="0 0 161.37 198.89"><defs><style>.cls-1{fill:url(#linear-gradient);}.cls-2{fill:#fff;}</style><linearGradient id="linear-gradient" y1="99.45" x2="161.37" y2="99.45" gradientUnits="userSpaceOnUse"><stop offset="0" stop-color="#fff"/><stop offset="0" stop-color="#a2a2a2"/><stop offset="0" stop-color="#8a8a8a"/><stop offset="0.54" stop-color="#919191" stop-opacity="0.7"/><stop offset="1" stop-color="#b0b0b0"/></linearGradient></defs><path class="cls-1" d="M142.21,168.81q-7.87-13.25-15.55-26.68c-1.44-2.49-1.92-4.19,1.26-6.26,20.58-13.41,33.38-33.1,33.45-63.92,0-20.58-7-36.56-18.48-49.55C129.67,7.52,113.8-.2,95.68,0,80.8.17,66,0,51.12,0a.74.74,0,0,0,0,.21H4.51C1.74.22,0,.79,0,5.12.17,22.05.12,39,.19,55.91a8.8,8.8,0,0,0,.1,2.85V198.9s144.13-.05,155.48-.08c1,0,2.27.51,2.9-1,.5-1.17-.17-2.16-.76-3.14C152.64,186.09,147.37,177.5,142.21,168.81Z"/><path class="cls-2" d="M45.51,113a28.74,28.74,0,0,0,5.83,9,21.82,21.82,0,0,0,16.19,7.69,20.9,20.9,0,0,0,13-4.71,25.67,25.67,0,0,0,7.86-8.27c2.38-3.88,4.84-5.86,9.49-5.55,5,.34,10,.12,15,0,2.62-.09,3.54,1,3.63,3.51a21.39,21.39,0,0,1-2,9.18C108,139.34,99.1,152.72,82,158c-13.09,4.08-25.65,2-37.41-4.82-13.16-7.64-20.76-19.5-24.09-34-5.27-23-.9-44.47,13-63.36C46.21,38.62,68.8,31.2,89.64,43.61c13.56,8.07,21.6,19.87,26.28,34.41.7,2.16.46,4.62.72,6.93.27,2.48-1,3.29-3.24,3.28h-9.5a33.79,33.79,0,0,0-4.5,0C94.16,89,91,87,88.17,82.35a26.56,26.56,0,0,0-8.79-8.91A20.65,20.65,0,0,0,67.53,69.6c-13.38,0-24.22,13.44-24.22,30v.93A28.19,28.19,0,0,0,45.51,113Z"/></svg>